<svg width="528" height="518" xmlns="http://www.w3.org/2000/svg">

 <g>
  <title>background</title>
  <rect fill="none" id="canvas_background" height="520" width="530" y="-1" x="-1"/>
 </g>
 <g>
  <title>Layer 1</title>
  <path id="svg_2" fill="#1d306d" d="m256,118.4c-2.8,0 -5.5,1.1 -7.6,3.2l-245.4,254.1c-4,4.2 -3.9,10.9 0.3,14.9c4.2,4 10.9,3.9 14.9,-0.3l245.5,-254c4,-4.2 3.9,-10.9 -0.3,-14.9c-2.1,-2 -4.8,-3 -7.4,-3z"/>
  <path id="svg_3" fill="#1d306d" d="m256,118.4c-2.6,0 -5.3,1 -7.3,3c-4.2,4 -4.3,10.7 -0.3,14.9l245.5,254c4,4.2 10.7,4.3 14.9,0.3c4.2,-4 4.3,-10.7 0.3,-14.9l-245.5,-254c-2.1,-2.2 -4.8,-3.3 -7.6,-3.3z"/>
 </g>
</svg>